<?xml version="1.0" encoding="UTF-8"?>
<svg version="1.1" xmlns="http://www.w3.org/2000/svg" width="1265" height="260">
<path d="M0 0 C6.82901832 3.84064853 11.29283791 10.22361707 16 16.3125 C16.89325993 17.44631525 17.78777844 18.57914015 18.68359375 19.7109375 C20.50346203 22.015486 22.31274039 24.3278951 24.1171875 26.64453125 C27.19217586 30.57698872 30.34266567 34.4460541 33.5 38.3125 C37.53220165 43.2518436 41.51811019 48.22069449 45.4375 53.25 C49.53938262 58.51006124 53.74590637 63.67489484 58 68.8125 C63.31323352 75.23184226 68.54590445 81.70380917 73.65234375 88.2890625 C75.0656495 90.10919337 76.49155893 91.91977803 77.94140625 93.7109375 C82.47920894 99.41872788 84.25692774 104.29825819 84 111.6875 C83.26579107 117.69316405 81.25689019 121.9950443 77 126.3125 C71.31379465 130.55727218 65.65882801 132.1042753 58.6015625 131.7265625 C46.48579409 129.79822699 39.73698829 118.88361002 32.75 109.8515625 C29.7177477 105.93350721 26.58414949 102.10389429 23.4375 98.27734375 C15.7537243 88.93121273 8.13042782 79.54232554 0.6965332 69.99584961 C-1.68777632 66.94380861 -4.12497837 63.96629203 -6.6875 61.0625 C-9 58.3125 -9 58.3125 -9 56.3125 C-12.6531942 59.87354155 -16.03612618 63.5876242 -19.3125 67.5 C-20.03687256 68.36081177 -20.03687256 68.36081177 -20.77587891 69.23901367 C-24.17315861 73.29013714 -27.50116166 77.39154753 -30.78515625 81.53515625 C-33.6009978 85.06613216 -36.45802216 88.56274119 -39.3125 92.0625 C-43.00901081 96.59738373 -46.6769347 101.15006034 -50.27294922 105.76513672 C-52.0538749 108.05030427 -53.84647822 110.32604897 -55.64404297 112.59814453 C-56.57010429 113.76897683 -57.49349176 114.9419277 -58.41455078 116.11669922 C-69.79629927 130.5465071 -69.79629927 130.5465071 -78.87890625 131.66796875 C-85.40648237 131.97024699 -90.72595862 131.33866551 -96 127.3125 C-100.53441406 123.04124389 -103.58593548 118.80316021 -104.3359375 112.48046875 C-104.49491772 100.35027761 -99.6843029 94.63415311 -91.984375 85.7890625 C-89.10303638 82.46601802 -86.38075837 79.038665 -83.6875 75.5625 C-79.54780666 70.23607959 -75.30402504 65.00695266 -71 59.8125 C-66.76349836 54.69780389 -62.57913095 49.55363858 -58.5 44.3125 C-53.84609598 38.33285477 -49.04742946 32.48227721 -44.20678711 26.65307617 C-40.88159913 22.63748706 -37.6342302 18.5777957 -34.45947266 14.44238281 C-25.46631442 2.74279003 -15.54898001 -6.49734093 0 0 Z " fill="#C88214" transform="translate(113,60.6875)"/>
<path d="M0 0 C1.90973901 -0.04860187 3.82162412 0.01446392 5.73028564 0.09494019 C8.38424094 2.74889548 8.00179947 4.03019021 8.0491333 7.73800659 C8.06900299 8.9190799 8.08887268 10.1001532 8.10934448 11.3170166 C8.12089569 12.59724701 8.1324469 13.87747742 8.14434814 15.19650269 C8.16371429 16.50323944 8.18308044 17.8099762 8.20303345 19.15631104 C8.25442734 22.63161127 8.29401387 26.10695031 8.33117676 29.58242798 C8.37117118 33.12836359 8.42228424 36.6741368 8.47247314 40.21994019 C8.56931811 47.17815495 8.6536953 54.13647383 8.73028564 61.09494019 C9.27538284 60.67835648 9.82048004 60.26177277 10.38209534 59.83256531 C11.45804207 59.01655098 11.45804207 59.01655098 12.5557251 58.18405151 C13.2658223 57.6437178 13.97591949 57.10338409 14.70753479 56.54667664 C17.01282735 54.89215886 19.25873228 53.76711411 21.91778564 52.78244019 C22.71571533 52.47693237 23.51364502 52.17142456 24.33575439 51.85665894 C35.09098518 48.43533756 46.20358808 49.70140024 56.43341064 54.31369019 C66.62580285 59.9413914 72.90168597 68.18788296 76.73028564 79.09494019 C81.43434867 95.67760842 81.03730711 112.73284857 72.57794189 127.99728394 C66.2676688 138.57666357 56.56895313 145.60472562 44.73028564 149.09494019 C29.43871862 152.60218033 14.1498067 151.5883463 -0.26971436 145.09494019 C-1.11533936 144.51615112 -1.96096436 143.93736206 -2.83221436 143.34103394 C-5.14318541 141.8156519 -5.14318541 141.8156519 -7.31268311 142.64572144 C-9.61467765 144.35039205 -11.56060048 146.25364474 -13.58221436 148.28244019 C-17.63510905 151.99368591 -17.63510905 151.99368591 -20.37518311 152.43087769 C-22.6262499 152.10598145 -24.61302667 151.75162787 -26.26971436 150.09494019 C-26.3593278 148.42303726 -26.37826203 146.74730992 -26.36978149 145.07302856 C-26.36534027 143.44104523 -26.36534027 143.44104523 -26.36080933 141.77609253 C-26.35250092 140.57194702 -26.3441925 139.36780151 -26.33563232 138.12716675 C-26.32845926 136.19288258 -26.32129032 134.25859839 -26.31427598 132.32431364 C-26.3058551 130.23838568 -26.29506312 128.15248063 -26.28374863 126.06656647 C-26.26073774 121.72168776 -26.24739673 117.37681377 -26.23605347 113.03189087 C-26.20257775 100.67426715 -26.16104658 88.31671043 -26.09832764 75.959198 C-26.06379453 69.1391401 -26.03999088 62.31913251 -26.02811921 55.4989965 C-26.02134784 51.88873117 -26.0088907 48.27867872 -25.98308945 44.66849518 C-25.95429553 40.63903181 -25.94872245 36.6098563 -25.94500732 32.58029175 C-25.93265045 31.38424316 -25.92029358 30.18819458 -25.90756226 28.9559021 C-25.91024109 27.85663391 -25.91291992 26.75736572 -25.91567993 25.62478638 C-25.91161573 24.67202946 -25.90755154 23.71927254 -25.90336418 22.7376442 C-26.34600698 19.54459565 -27.37782642 17.68648126 -29.26971436 15.09494019 C-33.40080981 12.55994979 -37.62108349 11.30358421 -42.26971436 10.09494019 C-42.26971436 7.78494019 -42.26971436 5.47494019 -42.26971436 3.09494019 C-39.07174668 1.49595635 -35.5637427 1.73049154 -32.04315186 1.55978394 C-31.22150543 1.51680679 -30.39985901 1.47382965 -29.55331421 1.42955017 C-27.80996294 1.33926362 -26.06649831 1.251144 -24.32293701 1.16500854 C-21.6760099 1.03398927 -19.02951067 0.89611881 -16.38299561 0.75704956 C-14.68640196 0.6700517 -12.98978791 0.58345083 -11.29315186 0.49728394 C-10.50951263 0.45667343 -9.72587341 0.41606293 -8.91848755 0.3742218 C-5.94633969 0.22905543 -2.97303387 0.12435943 0 0 Z M9.10517883 70.35528564 C7.17490494 72.79766427 7.3299725 74.52513564 7.29449463 77.61691284 C7.27535507 78.74884064 7.25621552 79.88076843 7.23649597 81.04699707 C7.2331575 82.27195892 7.22981903 83.49692078 7.22637939 84.75900269 C7.2163942 86.02078339 7.206409 87.28256409 7.19612122 88.58258057 C7.18091348 91.25775787 7.17260001 93.93202149 7.17437744 96.60714722 C7.17468086 100.01368343 7.13388357 103.41832285 7.08206081 106.82441139 C7.0403857 110.09420125 7.04242583 113.36398365 7.03887939 116.63400269 C7.01732285 117.84681915 6.9957663 119.05963562 6.97355652 120.3092041 C7.03605093 128.10140159 8.34613214 133.29418152 13.73028564 139.09494019 C18.06041193 142.13524162 21.4963217 142.72662549 26.73028564 142.09494019 C32.9456255 140.1022358 36.7214346 136.8485065 39.73028564 131.09494019 C46.45766646 116.67494565 46.54227171 96.5543926 42.10528564 81.40744019 C39.82047375 75.46192602 36.28878058 70.38468904 30.87872314 66.90353394 C23.4684757 64.11458626 15.22132381 65.61193247 9.10517883 70.35528564 Z " fill="#003C1E" transform="translate(591.2697143554688,12.905059814453125)"/>
<path d="M0 0 C0.9590625 -1.2375 0.9590625 -1.2375 1.9375 -2.5 C6.07465955 -5.8772731 8.90306479 -5.40752378 14 -5 C15.10233444 5.09624014 15.11736516 15.11133216 15.0625 25.25 C15.05747149 26.88150903 15.05291099 28.51301958 15.04882812 30.14453125 C15.03793757 34.0963923 15.02074866 38.04817892 15 42 C12.03 42 9.06 42 6 42 C5.49210937 40.96101563 4.98421875 39.92203125 4.4609375 38.8515625 C-4.63287395 18.51040022 -4.63287395 18.51040022 -21.359375 5.01953125 C-30.122006 2.12133187 -37.24796813 1.98746115 -45.765625 5.73046875 C-49.96162975 8.11456236 -52.03169794 11.20172474 -54.3125 15.4375 C-55.97720538 21.64231095 -55.09682835 26.42570898 -52 32 C-43.44986771 40.55013229 -31.32595079 43.40003509 -20.13769531 47.06738281 C10.06175382 57.00270647 10.06175382 57.00270647 17.9375 70.625 C23.09142226 81.03911096 24.37423725 91.77833943 21 103 C15.81274194 116.16638431 8.12100689 123.19921135 -4.51171875 129.19140625 C-13.8884535 133.18056656 -23.11178031 134.37131429 -33.25 134.3125 C-34.25853027 134.30758545 -35.26706055 134.3026709 -36.30615234 134.29760742 C-49.21112928 134.09587017 -60.07433647 130.89709669 -72 126 C-72.99 125.67 -73.98 125.34 -75 125 C-75.804375 125.99 -76.60875 126.98 -77.4375 128 C-78.80859375 129.6875 -78.80859375 129.6875 -81 131 C-84.01634602 131.25350774 -86.98054235 131.17274609 -90 131 C-91.19388403 96.51072249 -91.19388403 96.51072249 -91 81 C-88.03 81 -85.06 81 -82 81 C-81.3709375 82.25554687 -80.741875 83.51109375 -80.09375 84.8046875 C-72.12027257 100.4884706 -63.40407803 115.59093443 -45.953125 121.71875 C-38.11273595 123.89345645 -28.96791275 123.68647192 -21.5 120.3125 C-16.9923277 117.68777942 -14.31016056 114.24598953 -11.6875 109.75 C-10.24194054 103.96776215 -10.32003997 98.85443645 -12.375 93.25 C-19.21077305 83.18491348 -35.24416123 79.81370191 -46.27734375 76.3125 C-62.19153693 71.24727624 -75.76374066 66.39806688 -83.875 50.75 C-88.2087918 41.7380091 -88.34196647 30.68418966 -86.38671875 20.9453125 C-82.42116222 10.00946058 -74.25479983 2.11379938 -64 -3 C-42.54672719 -11.60229032 -20.83630918 -9.21700265 0 0 Z " fill="#003C1E" transform="translate(418,30)"/>
<path d="M0 0 C10.50083808 10.35082611 10.33126227 24.38065934 10.4765625 38.39453125 C10.49592865 39.57472336 10.5152948 40.75491547 10.5352478 41.97087097 C10.59436138 45.68884368 10.64115285 49.40684852 10.6875 53.125 C10.72574271 55.66733017 10.76479795 58.20964826 10.8046875 60.75195312 C10.90000558 66.93869369 10.98524619 73.12550888 11.0625 79.3125 C11.76117187 79.51746094 12.45984375 79.72242188 13.1796875 79.93359375 C14.08976563 80.20300781 14.99984375 80.47242188 15.9375 80.75 C16.84242188 81.01683594 17.74734375 81.28367187 18.6796875 81.55859375 C21.0625 82.3125 21.0625 82.3125 23.0625 83.3125 C23.0625 85.9525 23.0625 88.5925 23.0625 91.3125 C3.9225 91.3125 -15.2175 91.3125 -34.9375 91.3125 C-34.9375 88.6725 -34.9375 86.0325 -34.9375 83.3125 C-34.22722656 83.11914062 -33.51695312 82.92578125 -32.78515625 82.7265625 C-31.40650391 82.33597656 -31.40650391 82.33597656 -30 81.9375 C-28.62521484 81.55464844 -28.62521484 81.55464844 -27.22265625 81.1640625 C-24.77004913 80.54589896 -24.77004913 80.54589896 -23.9375 78.3125 C-23.83155949 76.56798073 -23.78871706 74.81946677 -23.77636719 73.07177734 C-23.76675964 71.97658783 -23.7571521 70.88139832 -23.74725342 69.75302124 C-23.74300354 68.56350861 -23.73875366 67.37399597 -23.734375 66.1484375 C-23.72867493 64.92726227 -23.72297485 63.70608704 -23.71710205 62.44790649 C-23.70763919 59.85704416 -23.70111299 57.26616972 -23.69726562 54.67529297 C-23.68759114 50.72471827 -23.65659177 46.77467056 -23.625 42.82421875 C-23.61846696 40.30729476 -23.61321767 37.79036704 -23.609375 35.2734375 C-23.5908548 33.50738663 -23.5908548 33.50738663 -23.57196045 31.70565796 C-23.58951722 25.18803094 -24.07699464 20.20805885 -26.9375 14.3125 C-29.94473746 11.39639094 -32.70349768 11.07980763 -36.75 10.875 C-41.85035338 11.04197585 -45.79866439 12.32191278 -49.9375 15.3125 C-50.78916748 15.9005542 -51.64083496 16.4886084 -52.51831055 17.09448242 C-55.98089726 20.63090233 -55.54221468 24.7862173 -55.58093262 29.49258423 C-55.55633972 31.30996597 -55.55633972 31.30996597 -55.53125 33.1640625 C-55.53129028 34.4150473 -55.53133057 35.6660321 -55.53137207 36.95492554 C-55.52601401 39.59680041 -55.51109328 42.23645524 -55.47949219 44.87792969 C-55.43973233 48.26210545 -55.43545808 51.64517015 -55.44295502 55.02953529 C-55.44676196 58.2619716 -55.4259524 61.4941965 -55.40625 64.7265625 C-55.40604858 65.94219879 -55.40584717 67.15783508 -55.40563965 68.41030884 C-55.38972778 69.53512665 -55.37381592 70.65994446 -55.35742188 71.81884766 C-55.34900269 72.80970367 -55.3405835 73.80055969 -55.33190918 74.82144165 C-54.87474823 77.70883542 -54.23350025 78.56914819 -51.9375 80.3125 C-49.90672316 81.29878417 -49.90672316 81.29878417 -47.75 82 C-47.03457031 82.25136719 -46.31914063 82.50273437 -45.58203125 82.76171875 C-45.03933594 82.94347656 -44.49664063 83.12523437 -43.9375 83.3125 C-43.9375 85.9525 -43.9375 88.5925 -43.9375 91.3125 C-63.4075 91.3125 -82.8775 91.3125 -102.9375 91.3125 C-102.9375 88.6725 -102.9375 86.0325 -102.9375 83.3125 C-102.16664063 83.11914062 -101.39578125 82.92578125 -100.6015625 82.7265625 C-99.59867188 82.46617187 -98.59578125 82.20578125 -97.5625 81.9375 C-96.56476562 81.68226563 -95.56703125 81.42703125 -94.5390625 81.1640625 C-91.81208985 80.48845681 -91.81208985 80.48845681 -89.9375 78.3125 C-88.84325681 75.14788309 -88.80534691 72.14189725 -88.79223633 68.81298828 C-88.78585648 67.71149445 -88.77947662 66.61000061 -88.77290344 65.47512817 C-88.77179062 64.289664 -88.7706778 63.10419983 -88.76953125 61.8828125 C-88.76620285 60.65972382 -88.76287445 59.43663513 -88.75944519 58.17648315 C-88.75438247 55.58917619 -88.75203666 53.0018627 -88.75219727 50.41455078 C-88.75001235 46.45985125 -88.73185364 42.50543137 -88.71289062 38.55078125 C-88.70995626 36.03645929 -88.70797175 33.522136 -88.70703125 31.0078125 C-88.69625298 29.23568893 -88.69625298 29.23568893 -88.68525696 27.42776489 C-88.68833359 26.31996674 -88.69141022 25.21216858 -88.69458008 24.07080078 C-88.69315506 23.10135529 -88.69173004 22.13190979 -88.69026184 21.13308716 C-89.05346351 16.98954411 -90.07597341 13.51863722 -92.5 10.125 C-95.989583 7.53018187 -99.78487011 6.48375458 -103.9375 5.3125 C-103.9375 2.6725 -103.9375 0.0325 -103.9375 -2.6875 C-75.49900465 -4.88451546 -75.49900465 -4.88451546 -64.1875 -4.875 C-63.45096191 -4.87564453 -62.71442383 -4.87628906 -61.95556641 -4.87695312 C-57.07458463 -4.82458463 -57.07458463 -4.82458463 -55.9375 -3.6875 C-55.86505947 -1.66785801 -55.85372812 0.35417124 -55.875 2.375 C-55.88402344 3.47972656 -55.89304687 4.58445312 -55.90234375 5.72265625 C-55.91394531 6.57730469 -55.92554688 7.43195313 -55.9375 8.3125 C-55.11507812 7.63703125 -54.29265625 6.9615625 -53.4453125 6.265625 C-38.60252332 -5.68765475 -16.72467734 -13.93266901 0 0 Z " fill="#003C1E" transform="translate(888.9375,69.6875)"/>
<path d="M0 0 C6.87722069 6.00938094 10.1288382 12.18195758 10.884552 21.41323853 C10.95286537 24.70214018 10.92628888 27.97664415 10.86328125 31.265625 C10.85429306 32.46039963 10.84530487 33.65517426 10.83604431 34.88615417 C10.80621554 38.67310757 10.75641113 42.45940324 10.703125 46.24609375 C10.65525308 50.05058828 10.61195397 53.85492101 10.58091736 57.65959167 C10.56119807 60.01916627 10.53161275 62.37868417 10.49098206 64.73799133 C10.47623085 66.34072151 10.47623085 66.34072151 10.46118164 67.97583008 C10.4476918 68.91163406 10.43420197 69.84743805 10.42030334 70.81159973 C10.66586918 73.73401853 11.29856548 75.82942666 12.640625 78.43359375 C17.10011635 80.55716106 21.7786209 80.93062781 26.640625 81.43359375 C26.640625 84.07359375 26.640625 86.71359375 26.640625 89.43359375 C18.66007032 92.7501879 11.40513115 93.86123303 2.828125 93.93359375 C1.94552002 93.95164062 1.06291504 93.9696875 0.15356445 93.98828125 C-6.45874969 93.92855953 -12.05223454 92.57742487 -16.95629883 87.91552734 C-20.359375 84.01800736 -20.359375 84.01800736 -20.359375 81.43359375 C-21.02582031 81.9646875 -21.69226562 82.49578125 -22.37890625 83.04296875 C-33.41710011 91.50301104 -44.08106782 95.32566324 -58.125 94.21484375 C-65.44593006 93.04708804 -71.35293885 89.99257269 -76.234375 84.37109375 C-81.46855202 77.13561376 -81.0538503 70.06737932 -80.359375 61.43359375 C-78.18698882 53.46034934 -72.18062417 48.64765082 -65.359375 44.43359375 C-63.14762136 43.54156971 -60.90141715 42.73161667 -58.6328125 41.99609375 C-58.00388092 41.78927979 -57.37494934 41.58246582 -56.72695923 41.36938477 C-54.7321168 40.71551409 -52.73348631 40.07427863 -50.734375 39.43359375 C-49.4176919 39.00475535 -48.10128315 38.57507363 -46.78515625 38.14453125 C-44.21097718 37.30334134 -41.63499521 36.46805089 -39.05761719 35.63671875 C-34.57047995 34.17694767 -30.10296168 32.66230874 -25.63916016 31.1328125 C-23.359375 30.43359375 -23.359375 30.43359375 -21.359375 30.43359375 C-21.61551535 27.39004367 -21.88872671 24.349651 -22.171875 21.30859375 C-22.24212891 20.45265625 -22.31238281 19.59671875 -22.38476562 18.71484375 C-22.86496085 13.72081336 -23.50493123 9.70527883 -26.359375 5.43359375 C-29.27523976 3.3195918 -31.81205733 3.16196376 -35.359375 3.18359375 C-36.205 3.1784375 -37.050625 3.17328125 -37.921875 3.16796875 C-40.49416311 3.4482822 -42.1396858 4.13877505 -44.359375 5.43359375 C-44.18019531 6.36300781 -44.00101563 7.29242188 -43.81640625 8.25 C-41.86008172 19.6203953 -41.86008172 19.6203953 -43.296875 23.55859375 C-45.89484998 27.18001341 -48.09051863 29.24622973 -52.359375 30.43359375 C-59.76463564 31.19134135 -65.83499289 31.32349504 -72.359375 27.43359375 C-75.92470321 23.49943849 -76.72405371 19.78660215 -76.63671875 14.48828125 C-75.93442407 9.28536576 -72.02132126 5.68522027 -68.04296875 2.58984375 C-51.37747942 -8.85559672 -17.0287621 -12.47541919 0 0 Z M-32.234375 44.05859375 C-33.29591797 44.55552734 -33.29591797 44.55552734 -34.37890625 45.0625 C-40.4488593 48.05791445 -44.19237411 51.37716285 -46.671875 57.87109375 C-47.96185161 64.55551798 -47.82369212 69.42877741 -44.359375 75.43359375 C-40.918637 78.05510841 -38.1506926 78.67619671 -33.921875 78.49609375 C-29.84465065 77.7855115 -26.68391401 76.70613007 -23.66796875 73.80859375 C-20.54034834 68.1321961 -21.3178918 60.76254761 -21.359375 54.43359375 C-21.34852052 53.02602329 -21.33558647 51.61846694 -21.3203125 50.2109375 C-21.30041076 46.95036924 -21.31287469 43.69378201 -21.359375 40.43359375 C-25.51361548 40.43359375 -28.59120644 42.25342014 -32.234375 44.05859375 Z " fill="#003C1E" transform="translate(1098.359375,69.56640625)"/>
<path d="M0 0 C8.02089769 7.21432697 11.49848785 15.48941495 13 26 C13 29.96 13 33.92 13 38 C-8.12 38 -29.24 38 -51 38 C-48.98757121 57.17622961 -48.98757121 57.17622961 -38 72 C-30.01071505 76.44829272 -21.21116299 77.45716434 -12.3359375 75.375 C-4.21338896 72.55851258 2.05656689 66.94250167 7 60 C9.9719385 61.12451727 12.33440687 62.22293791 15 64 C14.23103045 71.59357427 7.34665531 77.11682034 1.828125 81.87109375 C-12.34971084 92.13136968 -29.63920544 93.45117753 -46.39453125 90.78515625 C-59.87586855 87.8493504 -70.9968819 81.39596118 -79 70 C-86.02753762 57.41753874 -88.06218427 43.47812549 -85.27734375 29.328125 C-81.48261676 16.23862137 -74.90949332 5.29951504 -63.0625 -1.875 C-44.08672913 -12.21236824 -18.04711169 -12.79179277 0 0 Z M-45 4 C-50.28454634 11.70083562 -51 19.87953666 -51 29 C-41.43 29 -31.86 29 -22 29 C-21.63610886 14.33178231 -21.63610886 14.33178231 -28 2 C-34.03265984 -2.02177323 -39.84217952 -0.68892771 -45 4 Z " fill="#003C1E" transform="translate(766,72)"/>
<path d="M0 0 C1.22396484 0.34998047 1.22396484 0.34998047 2.47265625 0.70703125 C12.10059938 3.96594863 18.92452946 10.26185661 23.5625 19.25 C27.71741532 28.14834555 27 34.51432458 27 45 C5.88 45 -15.24 45 -37 45 C-34.6632224 63.90500142 -34.6632224 63.90500142 -24.0625 78.625 C-16.45238574 83.4977662 -7.52723472 84.3369035 1.26953125 82.53515625 C9.59254401 79.76081866 15.70682268 73.77687096 21 67 C24.93673644 68.31224548 27.22719294 69.91910327 30 73 C20.06628077 87.00909122 8.5283055 95.38927438 -8.5625 98.6875 C-25.90407696 100.264007 -43.23006736 97.22289308 -57 86 C-67.62877621 76.0583366 -71.75912255 62.79012226 -72.375 48.4375 C-71.70173412 32.92311237 -66.17261044 20.61933421 -55 10 C-40.39895662 -2.51859949 -18.26848612 -5.47737972 0 0 Z M-32 13 C-36.08184119 20.68128297 -36.2530271 27.03632514 -37 36 C-27.1 36 -17.2 36 -7 36 C-7.01233349 21.35053788 -7.01233349 21.35053788 -13.6875 8.9375 C-16.93215509 7.03968287 -19.1897335 6.17882761 -22.98046875 6.46875 C-27.01413903 7.52983154 -29.50143512 9.72142628 -32 13 Z " fill="#003C1E" transform="translate(522,65)"/>
<path d="M0 0 C29.37 0 58.74 0 89 0 C89 8.95174709 89 8.95174709 85.0625 13.9375 C84.1418833 15.14413188 83.22556971 16.35405344 82.3125 17.56640625 C81.79300781 18.25105957 81.27351562 18.93571289 80.73828125 19.64111328 C77.19656269 24.44730496 73.90140432 29.42691854 70.5625 34.375 C69.08249122 36.55890554 67.60202932 38.74250407 66.12109375 40.92578125 C65.41452637 41.96814941 64.70795898 43.01051758 63.97998047 44.08447266 C61.37527714 47.91990634 58.75462075 51.74412001 56.125 55.5625 C55.69960938 56.1802832 55.27421875 56.79806641 54.8359375 57.43457031 C53.99385852 58.65688034 53.15157544 59.8790498 52.30908203 61.10107422 C49.89165432 64.60774202 47.47690602 68.11625135 45.0625 71.625 C44.61342285 72.27670166 44.1643457 72.92840332 43.70166016 73.59985352 C43.27546387 74.21916748 42.84926758 74.83848145 42.41015625 75.4765625 C42.04027588 76.01361816 41.67039551 76.55067383 41.28930664 77.10400391 C39.50781613 79.72378337 37.75482883 82.36231273 36 85 C40.14486233 84.9306956 44.28878497 84.8425289 48.43286133 84.73754883 C49.8399778 84.70448006 51.24722116 84.67639296 52.65454102 84.65356445 C54.68820824 84.61968201 56.72073135 84.56735782 58.75390625 84.51171875 C59.97408447 84.48553467 61.1942627 84.45935059 62.45141602 84.43237305 C67.70070254 83.7927799 71.71560511 82.51343034 75.234375 78.3671875 C77.32372092 74.38263842 78.83416877 70.38694096 80.25 66.125 C80.518125 65.34125 80.78625 64.5575 81.0625 63.75 C81.71607486 61.83595933 82.35913168 59.91833251 83 58 C85.64 58 88.28 58 91 58 C91 70.21 91 82.42 91 95 C59.98 95 28.96 95 -3 95 C-3 84.87693091 -3 84.87693091 -0.54296875 81.52734375 C-0.01340576 80.78194336 0.51615723 80.03654297 1.06176758 79.26855469 C1.63950928 78.49930664 2.21725098 77.73005859 2.8125 76.9375 C4.02100063 75.25402633 5.22933155 73.57043083 6.4375 71.88671875 C7.04335938 71.05833496 7.64921875 70.22995117 8.2734375 69.37646484 C10.69118448 66.04864399 13.00134475 62.65221497 15.3125 59.25 C18.46087109 54.65984602 21.63373528 50.08714429 24.8203125 45.5234375 C33.02326093 33.77369228 41.11325893 21.9645447 49 10 C37.92446167 9.83685786 26.9475518 10.2178404 16 12 C15.73445312 12.66386719 15.46890625 13.32773438 15.1953125 14.01171875 C12.796875 20.0078125 10.3984375 26.00390625 8 32 C5.36 32 2.72 32 0 32 C0 21.44 0 10.88 0 0 Z " fill="#003C1E" transform="translate(919,66)"/>
<path d="M0 0 C0.495 0.99 0.495 0.99 1 2 C0.67 2.99 0.34 3.98 0 5 C-0.27198122 7.24318492 -0.27198122 7.24318492 -0.3125 9.6875 C-0.34988281 10.49574219 -0.38726562 11.30398437 -0.42578125 12.13671875 C0.74602365 20.01683796 6.04114154 25.87871275 11.0625 31.75 C12.30401986 33.22342398 13.5449265 34.69736493 14.78515625 36.171875 C15.33051025 36.8122168 15.87586426 37.45255859 16.43774414 38.11230469 C18.02486604 40.03004598 19.52229509 41.99714192 21 44 C19.68634784 46.82338336 18.22203388 49.13934873 16.2421875 51.5390625 C15.70335938 52.19648437 15.16453125 52.85390625 14.609375 53.53125 C14.03703125 54.2221875 13.4646875 54.913125 12.875 55.625 C11.68461697 57.07529199 10.49451167 58.52581198 9.3046875 59.9765625 C8.73073242 60.67426758 8.15677734 61.37197266 7.56542969 62.09082031 C5.69006406 64.37799424 3.84091434 66.68503047 2 69 C-1.40711818 73.27503671 -4.85856807 77.51281028 -8.3125 81.75 C-12.00886984 86.28500171 -15.67693201 90.83755689 -19.27294922 95.45263672 C-21.0538749 97.73780427 -22.84647822 100.01354897 -24.64404297 102.28564453 C-25.57010429 103.45647683 -26.49349176 104.6294277 -27.41455078 105.80419922 C-38.79629927 120.2340071 -38.79629927 120.2340071 -47.87890625 121.35546875 C-54.40648237 121.65774699 -59.72595862 121.02616551 -65 117 C-69.53441406 112.72874389 -72.58593548 108.49066021 -73.3359375 102.16796875 C-73.49491772 90.03777761 -68.6843029 84.32165311 -60.984375 75.4765625 C-58.10303638 72.15351802 -55.38075837 68.726165 -52.6875 65.25 C-48.54780666 59.92357959 -44.30402504 54.69445266 -40 49.5 C-35.76349667 44.38530185 -31.5791852 39.24109823 -27.5 34 C-22.77795139 27.93394986 -17.91095824 21.99561522 -13.01123047 16.07250977 C-8.61709806 10.75920286 -4.27811603 5.40743237 0 0 Z " fill="#006A3B" transform="translate(82,71)"/>
<path d="M0 0 C3.3 0 6.6 0 10 0 C10.81498562 1.6029053 11.62689927 3.20737278 12.4375 4.8125 C13.11619141 6.15248047 13.11619141 6.15248047 13.80859375 7.51953125 C15 10 15 10 16 13 C18.31 8.71 20.62 4.42 23 0 C26.3 0 29.6 0 33 0 C33 10.23 33 20.46 33 31 C30.36 31 27.72 31 25 31 C24.67 25.72 24.34 20.44 24 15 C22.68 18.3 21.36 21.6 20 25 C17.69 25 15.38 25 13 25 C11.68 21.7 10.36 18.4 9 15 C8.67 20.28 8.34 25.56 8 31 C5.36 31 2.72 31 0 31 C0 20.77 0 10.54 0 0 Z " fill="#595149" transform="translate(1222,205)"/>
<path d="M0 0 C3.3 0 6.6 0 10 0 C12.64 4.95 15.28 9.9 18 15 C18.33 10.05 18.66 5.1 19 0 C21.97 0 24.94 0 28 0 C28 10.23 28 20.46 28 31 C24.7 31 21.4 31 18 31 C15.03 25.39 12.06 19.78 9 14 C8.67 19.61 8.34 25.22 8 31 C5.36 31 2.72 31 0 31 C0 20.77 0 10.54 0 0 Z " fill="#595148" transform="translate(831,205)"/>
<path d="M0 0 C3.3 0 6.6 0 10 0 C12.97 5.28 15.94 10.56 19 16 C19.33 10.72 19.66 5.44 20 0 C22.64 0 25.28 0 28 0 C28 10.23 28 20.46 28 31 C24.7 31 21.4 31 18 31 C15.36 26.05 12.72 21.1 10 16 C9.67 20.95 9.34 25.9 9 31 C6.03 31 3.06 31 0 31 C0 20.77 0 10.54 0 0 Z " fill="#595148" transform="translate(528,205)"/>
<path d="M0 0 C3.3 0 6.6 0 10 0 C12.64 4.95 15.28 9.9 18 15 C18.33 10.05 18.66 5.1 19 0 C21.97 0 24.94 0 28 0 C28 10.23 28 20.46 28 31 C24.7 31 21.4 31 18 31 C15.03 25.39 12.06 19.78 9 14 C8.67 19.61 8.34 25.22 8 31 C5.36 31 2.72 31 0 31 C0 20.77 0 10.54 0 0 Z " fill="#595149" transform="translate(334,205)"/>
<path d="M0 0 C2.866875 -0.061875 5.73375 -0.12375 8.6875 -0.1875 C10.02880981 -0.22846802 10.02880981 -0.22846802 11.3972168 -0.27026367 C16.08604008 -0.31916583 19.21011422 -0.08722451 23 3 C24.58873246 6.17746491 24.41026221 9.54012202 24 13 C22.5 15.5 22.5 15.5 21 17 C21.33773438 17.50789063 21.67546875 18.01578125 22.0234375 18.5390625 C24.65410814 22.59911488 26.70414665 26.287806 28 31 C24.81516844 31.63696631 22.15391948 31.86719881 19 31 C16.99882089 28.59335323 15.7262171 26.20661983 14.38671875 23.3828125 C13.03607567 20.56128559 13.03607567 20.56128559 9 19 C9 22.96 9 26.92 9 31 C6.03 31 3.06 31 0 31 C0 20.77 0 10.54 0 0 Z M9 7 C9 8.98 9 10.96 9 13 C10.65 13 12.3 13 14 13 C15.10836423 11.11683841 15.10836423 11.11683841 16 9 C15.67 8.34 15.34 7.68 15 7 C13.02 7 11.04 7 9 7 Z " fill="#595148" transform="translate(1179,205)"/>
<path d="M0 0 C1.83498047 -0.03867188 1.83498047 -0.03867188 3.70703125 -0.078125 C7.42976445 0.27283975 9.23485379 1.01282322 12.1875 3.25 C15.93675634 8.47217847 16.62006473 12.86967028 16.1875 19.25 C14.51630836 24.43948982 12.72943631 27.22204246 8.1875 30.25 C4.00607256 32.34071372 -1.25908613 31.68450877 -5.8125 31.25 C-10.37510532 29.0087202 -13.67026622 26.2613436 -15.5 21.4375 C-16.38803461 15.22125773 -15.76303273 10.83493695 -12.8125 5.25 C-8.69829464 0.51243019 -6.20917787 0.07802108 0 0 Z M-4.125 8.0625 C-6.61260052 11.28716734 -6.93837675 12.70285166 -6.5 16.6875 C-6.42136719 17.46996094 -6.34273438 18.25242188 -6.26171875 19.05859375 C-5.89863351 21.52847118 -5.89863351 21.52847118 -3.8125 24.25 C-1.06684768 25.18930211 0.57426076 25.42521121 3.375 24.625 C5.84889825 22.7482496 6.37400663 21.23280902 7.1875 18.25 C7.54879721 14.7815468 7.36024711 12.68186777 6.0625 9.4375 C4.30023596 7.01804017 4.30023596 7.01804017 1.25 6.1875 C-1.90028208 5.94505943 -1.90028208 5.94505943 -4.125 8.0625 Z " fill="#595148" transform="translate(496.8125,204.75)"/>
<path d="M0 0 C1.1034375 -0.00773438 2.206875 -0.01546875 3.34375 -0.0234375 C7.89259685 0.55079812 10.46875496 2.40104635 13.75 5.5 C16.56613637 10.12650975 17.01928829 14.50283027 16.05859375 19.81640625 C14.63652692 24.74894663 13.04487403 27.64807558 8.5 30.375 C3.08807433 32.17897522 -3.12552005 32.33489615 -8.4375 30.1875 C-12.28134564 26.80957505 -15.10991565 23.61717648 -15.73828125 18.39453125 C-15.92979889 12.69940154 -15.10718393 7.94341059 -11.5 3.375 C-7.65974999 0.45292495 -4.77792465 -0.03349013 0 0 Z M-5.5 9.375 C-7.02208919 13.94126756 -7.16453438 17.76612729 -5.3125 22.25 C-3.64350668 24.51483348 -3.64350668 24.51483348 -1.125 25.4375 C1.62919461 25.56542096 1.62919461 25.56542096 4.25 23.9375 C7.24194941 20.53000206 7.78360982 17.85259751 7.5 13.375 C6.64104676 9.90428196 6.64104676 9.90428196 4.5 7.375 C0.11858144 5.79023158 -2.23911405 5.9933405 -5.5 9.375 Z " fill="#595148" transform="translate(1147.5,204.625)"/>
<path d="M0 0 C3.83396741 4.06632907 4.51363543 7.4764771 4.37890625 12.9375 C3.73639175 17.50649203 1.24580141 20.20141549 -2.1875 23.0625 C-6.54980239 24.84707825 -10.47560451 25.0097633 -14.90234375 23.53125 C-18.42069574 21.8055467 -19.8423441 20.34212833 -21.9375 16.9375 C-23.25571024 11.99421161 -23.53267748 7.96678999 -20.921875 3.41796875 C-15.4456177 -3.70463173 -7.51651513 -4.63784976 0 0 Z " fill="#C98213" transform="translate(111.9375,29.8125)"/>
<path d="M0 0 C3.63 0 7.26 0 11 0 C12.57079658 4.09181876 14.13726331 8.18526016 15.69970703 12.28027344 C16.2320421 13.67363368 16.76556577 15.0665404 17.30029297 16.45898438 C18.06789756 18.45845906 18.83123788 20.45951617 19.59375 22.4609375 C20.05458984 23.66540527 20.51542969 24.86987305 20.99023438 26.11083984 C22 29 22 29 22 31 C19.03 31 16.06 31 13 31 C12.34 29.35 11.68 27.7 11 26 C7.37 25.67 3.74 25.34 0 25 C-0.66 26.98 -1.32 28.96 -2 31 C-4.64 31 -7.28 31 -10 31 C-9.39983288 26.75734394 -8.40522383 22.96638623 -6.93359375 18.9453125 C-6.53076172 17.83671875 -6.12792969 16.728125 -5.71289062 15.5859375 C-5.29201172 14.44382813 -4.87113281 13.30171875 -4.4375 12.125 C-4.01275391 10.9596875 -3.58800781 9.794375 -3.15039062 8.59375 C-2.1048911 5.72743669 -1.05462612 2.86296514 0 0 Z M5 10 C4.01 12.97 3.02 15.94 2 19 C4.31 19 6.62 19 9 19 C8.01 16.03 7.02 13.06 6 10 C5.67 10 5.34 10 5 10 Z " fill="#595249" transform="translate(720,205)"/>
<path d="M0 0 C1.37478516 0.01740234 1.37478516 0.01740234 2.77734375 0.03515625 C3.69644531 0.04417969 4.61554688 0.05320313 5.5625 0.0625 C6.27277344 0.07410156 6.98304687 0.08570313 7.71484375 0.09765625 C9.28564033 4.18947501 10.85210706 8.28291641 12.41455078 12.37792969 C12.94688585 13.77128993 13.48040952 15.16419665 14.01513672 16.55664062 C14.78274131 18.55611531 15.54608163 20.55717242 16.30859375 22.55859375 C16.76943359 23.76306152 17.23027344 24.9675293 17.70507812 26.20849609 C18.71484375 29.09765625 18.71484375 29.09765625 18.71484375 31.09765625 C15.74484375 31.09765625 12.77484375 31.09765625 9.71484375 31.09765625 C9.05484375 29.44765625 8.39484375 27.79765625 7.71484375 26.09765625 C4.08484375 25.76765625 0.45484375 25.43765625 -3.28515625 25.09765625 C-3.94515625 27.07765625 -4.60515625 29.05765625 -5.28515625 31.09765625 C-7.92515625 31.09765625 -10.56515625 31.09765625 -13.28515625 31.09765625 C-11.91803437 24.111735 -9.81156851 17.72045506 -7.22265625 11.09765625 C-6.85849609 10.14503906 -6.49433594 9.19242188 -6.11914062 8.2109375 C-3.00020085 0.12821371 -3.00020085 0.12821371 0 0 Z M1.71484375 10.09765625 C1.05484375 13.06765625 0.39484375 16.03765625 -0.28515625 19.09765625 C1.69484375 19.09765625 3.67484375 19.09765625 5.71484375 19.09765625 C4.72484375 16.12765625 3.73484375 13.15765625 2.71484375 10.09765625 C2.38484375 10.09765625 2.05484375 10.09765625 1.71484375 10.09765625 Z " fill="#595148" transform="translate(1027.28515625,204.90234375)"/>
<path d="M0 0 C1.37478516 0.01740234 1.37478516 0.01740234 2.77734375 0.03515625 C3.69644531 0.04417969 4.61554687 0.05320313 5.5625 0.0625 C6.27277344 0.07410156 6.98304688 0.08570313 7.71484375 0.09765625 C18.71484375 28.1847349 18.71484375 28.1847349 18.71484375 31.09765625 C15.74484375 31.09765625 12.77484375 31.09765625 9.71484375 31.09765625 C9.05484375 29.44765625 8.39484375 27.79765625 7.71484375 26.09765625 C4.08484375 25.76765625 0.45484375 25.43765625 -3.28515625 25.09765625 C-3.61515625 27.07765625 -3.94515625 29.05765625 -4.28515625 31.09765625 C-7.25515625 31.09765625 -10.22515625 31.09765625 -13.28515625 31.09765625 C-12.69564956 26.92982851 -11.73999532 23.23193139 -10.25390625 19.296875 C-9.85558594 18.23791016 -9.45726562 17.17894531 -9.046875 16.08789062 C-8.63050781 14.99798828 -8.21414063 13.90808594 -7.78515625 12.78515625 C-7.36878906 11.67591797 -6.95242188 10.56667969 -6.5234375 9.42382812 C-3.00565074 0.12844661 -3.00565074 0.12844661 0 0 Z M1.71484375 10.09765625 C1.05484375 13.06765625 0.39484375 16.03765625 -0.28515625 19.09765625 C1.69484375 19.09765625 3.67484375 19.09765625 5.71484375 19.09765625 C4.72484375 16.12765625 3.73484375 13.15765625 2.71484375 10.09765625 C2.38484375 10.09765625 2.05484375 10.09765625 1.71484375 10.09765625 Z " fill="#595249" transform="translate(583.28515625,204.90234375)"/>
<path d="M0 0 C3.63 0 7.26 0 11 0 C12.56861844 4.25339842 14.13514517 8.50755891 15.69970703 12.76245117 C16.23265552 14.21090696 16.76618298 15.65914984 17.30029297 17.10717773 C18.06628987 19.18418047 18.83022617 21.26193083 19.59375 23.33984375 C19.83436157 23.99089584 20.07497314 24.64194794 20.32287598 25.31272888 C22 29.88612829 22 29.88612829 22 31 C19.03 31 16.06 31 13 31 C12.34 29.02 11.68 27.04 11 25 C7.37 25 3.74 25 0 25 C-0.66 26.98 -1.32 28.96 -2 31 C-4.64 31 -7.28 31 -10 31 C-9.4532325 24.07096458 -6.93348067 18.00312392 -4.4375 11.5625 C-4.01275391 10.44939453 -3.58800781 9.33628906 -3.15039062 8.18945312 C-2.10672412 5.45715768 -1.05423591 2.72823475 0 0 Z M5 9 C4.01 12.3 3.02 15.6 2 19 C4.31 19 6.62 19 9 19 C8.01 15.7 7.02 12.4 6 9 C5.67 9 5.34 9 5 9 Z " fill="#595148" transform="translate(386,205)"/>
<path d="M0 0 C7.26 0 14.52 0 22 0 C22 2.31 22 4.62 22 7 C17.71 7 13.42 7 9 7 C9 8.32 9 9.64 9 11 C12.96 11 16.92 11 21 11 C21 13.31 21 15.62 21 18 C17.04 18 13.08 18 9 18 C9 19.98 9 21.96 9 24 C13.29 24 17.58 24 22 24 C22 26.31 22 28.62 22 31 C14.74 31 7.48 31 0 31 C0 20.77 0 10.54 0 0 Z " fill="#595148" transform="translate(792,205)"/>
<path d="M0 0 C4.021875 -0.0928125 4.021875 -0.0928125 8.125 -0.1875 C8.95789551 -0.21481201 9.79079102 -0.24212402 10.64892578 -0.27026367 C15.50273718 -0.3241177 18.81697656 0.27277043 23 3 C25.45665197 6.68497796 25.70086491 9.71971786 25 14 C23.20636089 16.8100346 21.98119065 18.50940468 19 20 C15.32984725 20.1377685 11.67388652 20.04271961 8 20 C8 23.63 8 27.26 8 31 C5.36 31 2.72 31 0 31 C0 20.77 0 10.54 0 0 Z M8 7 C8 9.31 8 11.62 8 14 C10.91652174 14.16681109 10.91652174 14.16681109 14 14 C14.66 13.34 15.32 12.68 16 12 C15.67958603 9.39719432 15.67958603 9.39719432 15 7 C12.69 7 10.38 7 8 7 Z " fill="#595148" transform="translate(940,205)"/>
<path d="M0 0 C7.26 0 14.52 0 22 0 C22 2.31 22 4.62 22 7 C17.71 7 13.42 7 9 7 C9 8.32 9 9.64 9 11 C12.96 11 16.92 11 21 11 C21 13.31 21 15.62 21 18 C17.04 18 13.08 18 9 18 C9 22.29 9 26.58 9 31 C6.03 31 3.06 31 0 31 C0 20.77 0 10.54 0 0 Z " fill="#595149" transform="translate(1095,205)"/>
<path d="M0 0 C9.57 0 19.14 0 29 0 C29 2.31 29 4.62 29 7 C25.7 7 22.4 7 19 7 C19 14.92 19 22.84 19 31 C16.03 31 13.06 31 10 31 C10 23.08 10 15.16 10 7 C6.7 7 3.4 7 0 7 C0 4.69 0 2.38 0 0 Z " fill="#595148" transform="translate(872,205)"/>
<path d="M0 0 C9.24 0 18.48 0 28 0 C28 2.31 28 4.62 28 7 C25.03 7 22.06 7 19 7 C19 14.92 19 22.84 19 31 C16.03 31 13.06 31 10 31 C10 23.08 10 15.16 10 7 C6.7 7 3.4 7 0 7 C0 4.69 0 2.38 0 0 Z " fill="#5A5148" transform="translate(674,205)"/>
<path d="M0 0 C9.24 0 18.48 0 28 0 C28 2.31 28 4.62 28 7 C24.7 7 21.4 7 18 7 C18 14.92 18 22.84 18 31 C15.36 31 12.72 31 10 31 C10 23.08 10 15.16 10 7 C6.7 7 3.4 7 0 7 C0 4.69 0 2.38 0 0 Z " fill="#595148" transform="translate(1053,205)"/>
<path d="M0 0 C9.24 0 18.48 0 28 0 C28 2.31 28 4.62 28 7 C24.7 7 21.4 7 18 7 C18 14.92 18 22.84 18 31 C15.36 31 12.72 31 10 31 C10 23.08 10 15.16 10 7 C6.7 7 3.4 7 0 7 C0 4.69 0 2.38 0 0 Z " fill="#595148" transform="translate(415,205)"/>
<path d="M0 0 C2.97 0 5.94 0 9 0 C9 7.92 9 15.84 9 24 C13.29 24 17.58 24 22 24 C22 26.31 22 28.62 22 31 C14.74 31 7.48 31 0 31 C0 20.77 0 10.54 0 0 Z " fill="#5A5148" transform="translate(980,205)"/>
<path d="M0 0 C2.64 0 5.28 0 8 0 C8 7.92 8 15.84 8 24 C12.62 24 17.24 24 22 24 C22 26.31 22 28.62 22 31 C14.74 31 7.48 31 0 31 C0 20.77 0 10.54 0 0 Z " fill="#595148" transform="translate(756,205)"/>
<path d="M0 0 C2.64 0 5.28 0 8 0 C8 7.92 8 15.84 8 24 C12.62 24 17.24 24 22 24 C22 26.31 22 28.62 22 31 C14.74 31 7.48 31 0 31 C0 20.77 0 10.54 0 0 Z " fill="#595148" transform="translate(616,205)"/>
<path d="M0 0 C2.97 0 5.94 0 9 0 C9 10.23 9 20.46 9 31 C6.03 31 3.06 31 0 31 C0 20.77 0 10.54 0 0 Z " fill="#5A5149" transform="translate(457,205)"/>
</svg>
